<svg xmlns="http://www.w3.org/2000/svg" width="1200" height="330" viewBox="0 0 1200 330" role="img" aria-labelledby="title desc">
<title id="title">AZ-2 — Build a song. Play a world.</title><desc id="desc">Bannière sombre avec courbes d'oscillateur, séquenceur huit pistes et console portable stylisée.</desc>
<defs><linearGradient id="bg" x2="1" y2="1"><stop stop-color="#07151b"/><stop offset=".56" stop-color="#10272c"/><stop offset="1" stop-color="#07151b"/></linearGradient><linearGradient id="line" x2="1"><stop stop-color="#37d5b3"/><stop offset="1" stop-color="#b7ef6f"/></linearGradient><pattern id="grid" width="24" height="24" patternUnits="userSpaceOnUse"><path d="M24 0H0V24" fill="none" stroke="#3ddbb4" opacity=".09"/></pattern></defs>
<rect width="1200" height="330" rx="22" fill="url(#bg)"/><rect width="1200" height="330" rx="22" fill="url(#grid)"/>
<rect x="42" y="45" width="7" height="240" rx="3" fill="url(#line)"/>
<text x="77" y="127" fill="#f2fff9" font-family="Arial,Helvetica,sans-serif" font-weight="800" font-size="79" letter-spacing="-4">AZ—2</text>
<text x="80" y="169" fill="#9fe9ce" font-family="Arial,Helvetica,sans-serif" font-weight="700" font-size="21" letter-spacing="3">GAME BOY × GROOVEBOX</text>
<text x="80" y="223" fill="#e0eee8" font-family="Arial,Helvetica,sans-serif" font-size="27" letter-spacing=".3">Build a song. Play a world.</text>
<text x="80" y="262" fill="#8ba9a0" font-family="Arial,Helvetica,sans-serif" font-size="16">8 TRACKS  /  6 ENGINES  /  TEENSY 4.1 + ESP32-S3</text>
<g transform="translate(678 44)"><rect width="475" height="242" rx="22" fill="#173039" stroke="#65dbc1" stroke-opacity=".65" stroke-width="2"/><rect x="19" y="18" width="437" height="160" rx="10" fill="#0a1b22"/><g fill="#3cc9a6" opacity=".75"><rect x="34" y="35" width="56" height="5" rx="2"/><rect x="99" y="35" width="56" height="5" rx="2"/><rect x="164" y="35" width="56" height="5" rx="2"/><rect x="229" y="35" width="56" height="5" rx="2"/><rect x="294" y="35" width="56" height="5" rx="2"/><rect x="359" y="35" width="56" height="5" rx="2"/></g><g fill="#305952"><rect x="34" y="52" width="56" height="14" rx="3"/><rect x="99" y="52" width="56" height="14" rx="3"/><rect x="164" y="52" width="56" height="14" rx="3"/><rect x="229" y="52" width="56" height="14" rx="3"/><rect x="294" y="52" width="56" height="14" rx="3"/><rect x="359" y="52" width="56" height="14" rx="3"/></g><g fill="#c0eb82"><rect x="34" y="52" width="22" height="14" rx="3"/><rect x="99" y="52" width="35" height="14" rx="3"/><rect x="164" y="52" width="18" height="14" rx="3"/><rect x="229" y="52" width="40" height="14" rx="3"/><rect x="294" y="52" width="25" height="14" rx="3"/><rect x="359" y="52" width="30" height="14" rx="3"/></g><path d="M35 123 L55 123 62 91 71 154 82 107 91 123 110 123 117 100 128 150 141 91 154 124 175 124 189 87 200 161 214 103 228 123 251 123 264 95 279 155 292 107 303 123 327 123 341 90 353 158 363 108 378 124 417 124" fill="none" stroke="url(#line)" stroke-width="3" stroke-linecap="round" stroke-linejoin="round"/><g fill="#d5f3e6"><rect x="34" y="190" width="22" height="39" rx="4"/><rect x="65" y="190" width="22" height="39" rx="4"/><rect x="96" y="190" width="22" height="39" rx="4"/><rect x="127" y="190" width="22" height="39" rx="4"/><rect x="158" y="190" width="22" height="39" rx="4"/><rect x="189" y="190" width="22" height="39" rx="4"/><rect x="220" y="190" width="22" height="39" rx="4"/><rect x="251" y="190" width="22" height="39" rx="4"/></g><g fill="#64d1af"><circle cx="332" cy="210" r="16"/><circle cx="376" cy="210" r="16"/><circle cx="420" cy="210" r="16"/></g></g>
</svg>